<svg version="1.1" id="Layer_1" xmlns="http://www.w3.org/2000/svg" xmlns:xlink="http://www.w3.org/1999/xlink" x="0px" y="0px"
	 width="100%" viewBox="0 0 599 467" enable-background="new 0 0 599 467" xml:space="preserve">
<path fill="#000000" opacity="1.000000" stroke="none" 
	d="
M600.000000,153.000000 
	C600.000000,258.308746 600.000000,363.117523 600.000000,467.963135 
	C400.404755,467.963135 200.809464,467.963135 1.107101,467.963135 
	C1.107101,312.441315 1.107101,156.882507 1.107101,1.161853 
	C200.666550,1.161853 400.333282,1.161853 600.000000,1.161853 
	C600.000000,51.523815 600.000000,102.011909 600.000000,153.000000 
M587.953430,412.428436 
	C587.649475,412.259277 587.345459,412.090118 587.009338,411.990631 
	C587.009338,411.990631 587.079224,411.958862 586.953674,411.428986 
	C586.648376,411.259308 586.343079,411.089661 586.010620,410.989441 
	C586.010620,410.989441 586.080322,410.962860 585.954468,410.430573 
	C585.647949,410.260132 585.341370,410.089691 585.011353,409.988678 
	C585.011353,409.988678 585.080994,409.965759 584.954834,409.431427 
	C584.647095,409.260468 584.339355,409.089539 584.010925,408.989655 
	C584.010925,408.989655 584.077942,408.958191 584.019958,408.254395 
	C581.765381,406.087524 579.510742,403.920624 577.062622,401.875610 
	C577.062622,401.875610 577.279236,401.802216 577.610962,401.188782 
	C577.096008,400.771454 576.580994,400.354126 576.000000,399.996338 
	C576.000000,399.996338 576.058533,399.928772 575.869629,399.328186 
	C575.269775,399.195435 574.669922,399.062683 573.839417,398.299500 
	C566.838745,390.860016 559.838074,383.420502 552.987244,375.360840 
	C552.685913,374.892578 552.384644,374.424347 552.004883,374.002441 
	C552.004883,374.002441 552.078003,373.950867 551.991638,373.101593 
	C551.661377,371.039490 551.043152,368.977539 551.042175,366.915283 
	C550.995056,264.643524 551.014160,162.371704 550.918701,60.100018 
	C550.916443,57.707657 549.691956,55.316433 549.015320,52.992397 
	C549.015320,52.992397 549.085938,52.982403 549.014648,52.226471 
	C547.324707,49.647652 545.634827,47.068829 543.949341,44.232494 
	C543.853027,44.048916 543.706482,43.989727 543.003784,43.484211 
	C539.462097,39.735722 535.084961,38.496559 529.138733,39.000015 
	C377.917053,39.000084 226.695358,38.999519 75.473671,39.006596 
	C73.313110,39.006699 71.152557,39.102489 68.257858,39.263409 
	C66.158897,39.896656 64.059937,40.529903 61.262478,41.016365 
	C60.157372,41.652367 59.052261,42.288372 57.996620,43.000950 
	C57.996620,43.000950 57.954044,42.921658 57.434563,43.058567 
	C57.262985,43.358772 57.091408,43.658981 56.994583,43.992958 
	C56.994583,43.992958 56.943893,43.928463 56.220615,43.996513 
	C55.118622,45.657028 54.016628,47.317547 52.985458,48.991184 
	C52.985458,48.991184 52.959877,48.923851 52.267632,49.189304 
	C51.177841,52.448502 49.144104,55.705521 49.136597,58.967205 
	C48.958481,136.354401 49.005917,213.742096 48.994122,291.129700 
	C48.989964,318.422150 48.938221,345.714569 48.982502,372.992157 
	C48.982502,372.992157 48.961773,372.919281 48.440151,373.055145 
	C48.267094,373.355621 48.094040,373.656097 47.997150,373.997162 
	C47.997150,373.997162 47.936333,373.935883 47.326736,374.150543 
	C47.163239,374.765930 46.999737,375.381348 46.111179,375.970856 
	C43.059292,379.484955 40.059986,383.046478 36.943443,386.502258 
	C32.004616,391.978760 26.987349,397.384583 21.297783,402.969025 
	C20.171740,404.301880 19.045696,405.634705 17.987955,406.988281 
	C17.987955,406.988281 17.975256,406.918030 17.434240,407.040833 
	C17.262178,407.351715 17.090115,407.662567 16.988415,407.988037 
	C16.988415,407.988037 16.965166,407.920044 16.249647,407.977386 
	C15.806769,408.638123 15.363891,409.298859 14.988602,409.989838 
	C14.988602,409.989838 14.966766,409.919098 14.432157,410.041565 
	C14.261376,410.348633 14.090596,410.655701 13.989330,410.989380 
	C13.989330,410.989380 13.962296,410.920013 13.429897,411.042755 
	C13.260026,411.348907 13.090155,411.655029 12.989835,411.989929 
	C12.989835,411.989929 12.960727,411.920502 12.429967,412.042603 
	C12.260422,412.347626 12.090877,412.652649 11.991138,412.991150 
	C11.991138,412.991150 11.957357,412.921478 11.429305,413.042877 
	C11.260511,413.346191 11.091717,413.649506 10.993031,413.993103 
	C10.993031,413.993103 10.953304,413.922668 10.427995,414.043610 
	C10.260110,414.345398 10.092226,414.647186 9.994767,414.994904 
	C9.994767,414.994904 9.949531,414.924011 9.426512,415.044495 
	C9.259460,415.345062 9.092409,415.645660 8.998894,415.998779 
	C8.998894,415.998779 8.923847,415.944855 8.311981,416.140808 
	C8.179219,416.756989 8.046456,417.373199 7.985173,417.992554 
	C7.985173,417.992554 7.952778,417.928772 7.336738,418.120758 
	C7.278413,418.732910 7.220088,419.345032 7.023498,420.873383 
	C6.836378,428.047455 6.758724,435.194946 12.020517,441.767120 
	C12.660929,442.867096 13.301340,443.967072 13.993221,445.004150 
	C13.993221,445.004150 13.918889,445.036896 14.056578,445.560577 
	C14.358741,445.734100 14.660903,445.907593 14.988653,446.011353 
	C14.988653,446.011353 14.918899,446.036896 15.056635,446.560547 
	C15.358794,446.734039 15.660953,446.907562 15.988608,447.011383 
	C15.988608,447.011383 15.918817,447.036682 16.056700,447.560425 
	C16.358904,447.734009 16.661108,447.907593 16.994053,448.008667 
	C16.994053,448.008667 16.928345,448.052032 17.156857,448.693390 
	C17.706753,448.888885 18.256649,449.084381 19.041479,449.125214 
	C19.041479,449.125214 18.797386,449.261017 18.708975,450.074646 
	C21.315258,450.716675 23.921268,451.919434 26.527863,451.920685 
	C207.869156,452.008728 389.210480,452.002960 570.551819,451.962006 
	C572.061340,451.961670 573.570740,451.377228 575.799500,451.007874 
	C583.441711,447.329895 587.290283,440.633148 590.770447,432.793732 
	C591.852173,429.037903 593.495117,425.321991 593.766113,421.508545 
	C593.891602,419.742950 591.342834,417.787323 590.002441,415.998260 
	C590.002441,415.998260 590.082947,416.001221 590.015320,415.357147 
	C589.700317,414.884949 589.385254,414.412781 588.998901,413.995636 
	C588.998901,413.995636 589.076904,413.951843 588.952209,413.426300 
	C588.649353,413.258057 588.346558,413.089813 588.008423,412.991577 
	C588.008423,412.991577 588.078430,412.956238 587.953430,412.428436 
z"/>
<path fill="#8E55FF" opacity="1.000000" stroke="none" 
	d="
M22.003260,402.820312 
	C26.987349,397.384583 32.004616,391.978760 36.943443,386.502258 
	C40.059986,383.046478 43.059292,379.484955 46.851120,375.908386 
	C47.706150,375.209229 47.821239,374.572571 47.936333,373.935883 
	C47.936333,373.935883 47.997150,373.997162 48.320992,374.104706 
	C48.750481,373.781250 48.856129,373.350281 48.961777,372.919281 
	C48.961773,372.919281 48.982502,372.992157 49.371250,372.867157 
	C49.883698,370.760345 50.115242,368.778534 50.115620,366.796692 
	C50.133389,273.156677 50.089149,179.516617 50.181698,85.876709 
	C50.193913,73.515694 48.635777,60.982620 52.959877,48.923851 
	C52.959877,48.923851 52.985458,48.991184 53.308552,49.017296 
	C54.735729,47.338428 55.839809,45.633446 56.943893,43.928463 
	C56.943893,43.928463 56.994583,43.992958 57.330925,44.093987 
	C57.762859,43.770561 57.858452,43.346107 57.954044,42.921658 
	C57.954044,42.921658 57.996620,43.000950 58.225830,43.247257 
	C59.623680,42.716759 60.792324,41.939953 61.960968,41.163147 
	C64.059937,40.529903 66.158897,39.896656 68.916695,39.508881 
	C70.896873,39.834534 72.218216,39.984848 73.539566,39.984940 
	C224.243637,39.995090 374.947723,39.994606 525.651794,39.985893 
	C527.146057,39.985809 528.640381,39.868694 530.524109,39.842026 
	C532.819031,40.356796 534.764465,40.717369 536.619751,41.344608 
	C538.954956,42.134064 541.216431,43.141529 543.509705,44.054932 
	C543.706482,43.989727 543.853027,44.048916 543.685486,44.704178 
	C545.309753,47.778042 547.197815,50.380219 549.085938,52.982399 
	C549.085938,52.982403 549.015320,52.992397 548.879517,53.387920 
	C549.055969,59.092480 549.637817,64.401375 549.640686,69.710579 
	C549.694885,168.947876 549.679688,268.185242 549.683777,367.422577 
	C549.683838,369.085754 549.529236,370.795410 549.877014,372.389526 
	C550.018738,373.039124 551.309814,373.437927 552.078003,373.950867 
	C552.078003,373.950867 552.004883,374.002441 551.726379,374.194580 
	C551.911072,374.918121 552.374207,375.449554 552.837402,375.980988 
	C559.838074,383.420502 566.838745,390.860016 574.043457,398.971008 
	C574.851196,399.737915 575.454895,399.833344 576.058533,399.928772 
	C576.058533,399.928772 576.000000,399.996338 575.805176,400.295410 
	C576.166626,400.997070 576.722961,401.399628 577.279236,401.802185 
	C577.279236,401.802216 577.062622,401.875610 577.030151,402.154785 
	C579.357727,404.608734 581.717834,406.783478 584.077942,408.958191 
	C584.077942,408.958191 584.010925,408.989655 583.969360,409.293213 
	C584.312195,409.719757 584.696594,409.842773 585.080994,409.965759 
	C585.080994,409.965759 585.011353,409.988678 584.958008,410.298523 
	C585.296509,410.726501 585.688416,410.844696 586.080322,410.962860 
	C586.080322,410.962860 586.010620,410.989441 585.946045,411.306213 
	C586.280762,411.734924 586.679993,411.846893 587.079224,411.958862 
	C587.079224,411.958862 587.009338,411.990631 586.930908,412.312866 
	C587.261108,412.742126 587.669739,412.849182 588.078430,412.956238 
	C588.078430,412.956238 588.008423,412.991577 587.920532,413.321472 
	C588.247375,413.751526 588.662109,413.851685 589.076904,413.951843 
	C589.076904,413.951843 588.998901,413.995636 588.794312,414.266541 
	C589.087402,415.025360 589.585205,415.513306 590.082947,416.001221 
	C590.082947,416.001221 590.002441,415.998260 590.050049,416.345215 
	C590.700439,419.637482 591.737793,422.577545 591.773254,425.529663 
	C591.803284,428.039703 590.678284,430.563629 590.064392,433.081390 
	C587.290283,440.633148 583.441711,447.329895 574.976196,450.930817 
	C571.488708,450.904236 568.824524,450.998749 566.160339,450.998871 
	C394.910950,451.005859 223.661545,451.037811 52.412212,450.930328 
	C41.206924,450.923309 30.002312,449.842407 18.797386,449.261047 
	C18.797386,449.261017 19.041479,449.125214 18.976171,448.816223 
	C18.250025,448.355499 17.589186,448.203766 16.928347,448.052032 
	C16.928345,448.052032 16.994053,448.008667 17.076481,447.687073 
	C16.745544,447.255859 16.332180,447.146271 15.918818,447.036682 
	C15.918817,447.036682 15.988608,447.011383 16.074644,446.687988 
	C15.746753,446.255371 15.332826,446.146149 14.918899,446.036896 
	C14.918899,446.036896 14.988653,446.011353 15.074718,445.687988 
	C14.746819,445.255371 14.332854,445.146149 13.918889,445.036896 
	C13.918889,445.036896 13.993221,445.004150 14.173817,444.724670 
	C13.545488,443.319580 12.736564,442.193970 11.927643,441.068359 
	C6.758724,435.194946 6.836378,428.047455 7.368191,420.265625 
	C7.792848,419.081512 7.872812,418.505157 7.952777,417.928772 
	C7.952778,417.928772 7.985173,417.992554 8.340339,417.941803 
	C8.771619,417.242310 8.847733,416.593597 8.923846,415.944855 
	C8.923847,415.944855 8.998894,415.998779 9.330769,416.119324 
	C9.758273,415.801270 9.853903,415.362640 9.949532,414.924011 
	C9.949531,414.924011 9.994767,414.994904 10.321462,415.104034 
	C10.749872,414.782990 10.851587,414.352844 10.953304,413.922668 
	C10.953304,413.922668 10.993031,413.993103 11.312966,414.085999 
	C11.741055,413.759766 11.849207,413.340637 11.957358,412.921478 
	C11.957357,412.921478 11.991138,412.991150 12.304733,413.065247 
	C12.732459,412.733093 12.846591,412.326782 12.960725,411.920502 
	C12.960727,411.920502 12.989835,411.989929 13.299797,412.051331 
	C13.727271,411.715149 13.844784,411.317566 13.962297,410.920013 
	C13.962296,410.920013 13.989330,410.989380 14.293200,411.044128 
	C14.720303,410.705627 14.843536,410.312347 14.966768,409.919098 
	C14.966766,409.919098 14.988602,409.989838 15.309225,410.070251 
	C16.074955,409.407135 16.520060,408.663574 16.965166,407.920044 
	C16.965166,407.920044 16.988415,407.988037 17.276962,408.008942 
	C17.702093,407.659241 17.838676,407.288635 17.975258,406.918030 
	C17.975256,406.918030 17.987955,406.988281 18.305517,407.040283 
	C19.749805,405.668304 20.876532,404.244293 22.003260,402.820312 
M25.100645,434.565125 
	C26.936268,435.364655 28.757799,436.815674 30.609844,436.855743 
	C41.028477,437.081055 51.454445,436.966858 62.821770,437.111023 
	C231.072205,437.116882 399.322632,437.124207 567.573059,437.121704 
	C572.699524,437.121613 574.096130,435.504791 574.446533,429.145752 
	C572.444763,429.145752 570.456970,429.145782 568.469116,429.145782 
	C511.330505,429.145782 454.191895,429.135071 397.053284,429.151886 
	C378.397675,429.157379 359.742065,429.234558 340.153961,429.076477 
	C235.370010,429.053955 130.586060,429.030212 25.802103,429.028931 
	C24.896090,429.028900 23.990072,429.330353 22.449926,429.603516 
	C23.418594,431.322815 24.120527,432.568695 25.100645,434.565125 
M30.426399,414.337433 
	C30.324923,418.023560 33.111572,415.879456 34.222347,415.880219 
	C209.968369,415.997406 385.714478,415.994995 561.460571,415.955475 
	C563.379211,415.955017 565.297668,415.403839 567.396851,414.965668 
	C567.396851,414.965668 567.612671,415.048187 568.237000,415.002289 
	C568.057007,414.655121 567.877014,414.307922 567.318665,413.900177 
	C567.070557,413.747162 566.970032,413.526794 567.020325,412.590118 
	C566.676697,412.096558 566.333130,411.602966 565.360352,410.855042 
	C558.578430,403.753510 551.792175,396.656097 545.018188,389.546997 
	C543.661072,388.122650 542.350708,386.653656 540.913452,384.346924 
	C538.594116,383.855804 536.275024,382.935822 533.955505,382.934814 
	C380.598999,382.866791 227.242508,382.872284 73.886002,382.880005 
	C71.891418,382.880096 69.896828,382.991211 67.183907,383.048676 
	C66.147614,383.245819 65.047653,383.284576 64.087349,383.670685 
	C61.536251,384.696533 58.437832,385.270081 56.633709,387.090515 
	C47.898960,395.904266 39.518311,405.068970 30.426399,414.337433 
M64.005287,255.500000 
	C64.005287,293.247498 64.005287,330.995026 64.005287,368.713623 
	C221.693314,368.713623 378.611969,368.713623 535.994629,368.713623 
	C535.994629,366.654938 535.994690,364.858002 535.994690,363.061096 
	C535.994690,263.734711 535.995850,164.408295 535.992920,65.081902 
	C535.992615,55.478905 533.517578,53.006649 523.922119,53.006535 
	C374.599213,53.004776 225.276291,53.004707 75.953369,53.006649 
	C66.047600,53.006779 64.006783,55.059811 64.006432,65.013229 
	C64.004196,128.175491 64.005295,191.337738 64.005287,255.500000 
z"/>
<path fill="#FFFEFF" opacity="1.000000" stroke="none" 
	d="
M18.753181,449.667847 
	C30.002312,449.842407 41.206924,450.923309 52.412212,450.930328 
	C223.661545,451.037811 394.910950,451.005859 566.160339,450.998871 
	C568.824524,450.998749 571.488708,450.904236 574.616577,450.959656 
	C573.570740,451.377228 572.061340,451.961670 570.551819,451.962006 
	C389.210480,452.002960 207.869156,452.008728 26.527863,451.920685 
	C23.921268,451.919434 21.315258,450.716675 18.753181,449.667847 
z"/>
<path fill="#C2A3FF" opacity="1.000000" stroke="none" 
	d="
M530.134644,39.806213 
	C528.640381,39.868694 527.146057,39.985809 525.651794,39.985893 
	C374.947723,39.994606 224.243637,39.995090 73.539566,39.984940 
	C72.218216,39.984848 70.896873,39.834534 69.283768,39.453987 
	C71.152557,39.102489 73.313110,39.006699 75.473671,39.006596 
	C226.695358,38.999519 377.917053,39.000084 529.614319,39.246506 
	C530.089905,39.492996 530.134644,39.806213 530.134644,39.806213 
z"/>
<path fill="#FEFDFF" opacity="1.000000" stroke="none" 
	d="
M52.613754,49.056580 
	C48.635777,60.982620 50.193913,73.515694 50.181698,85.876709 
	C50.089149,179.516617 50.133389,273.156677 50.115620,366.796692 
	C50.115242,368.778534 49.883698,370.760345 49.334099,372.874573 
	C48.938221,345.714569 48.989964,318.422150 48.994122,291.129700 
	C49.005917,213.742096 48.958481,136.354401 49.136597,58.967205 
	C49.144104,55.705521 51.177841,52.448502 52.613754,49.056580 
z"/>
<path fill="#FEFEFF" opacity="1.000000" stroke="none" 
	d="
M552.034790,373.526245 
	C551.309814,373.437927 550.018738,373.039124 549.877014,372.389526 
	C549.529236,370.795410 549.683838,369.085754 549.683777,367.422577 
	C549.679688,268.185242 549.694885,168.947876 549.640686,69.710579 
	C549.637817,64.401375 549.055969,59.092480 548.890625,53.354065 
	C549.691956,55.316433 550.916443,57.707657 550.918701,60.100018 
	C551.014160,162.371704 550.995056,264.643524 551.042175,366.915283 
	C551.043152,368.977539 551.661377,371.039490 552.034790,373.526245 
z"/>
<path fill="#F5EFFF" opacity="1.000000" stroke="none" 
	d="
M590.417419,432.937561 
	C590.678284,430.563629 591.803284,428.039703 591.773254,425.529663 
	C591.737793,422.577545 590.700439,419.637482 590.052002,416.304993 
	C591.342834,417.787323 593.891602,419.742950 593.766113,421.508545 
	C593.495117,425.321991 591.852173,429.037903 590.417419,432.937561 
z"/>
<path fill="#F4EFFF" opacity="1.000000" stroke="none" 
	d="
M530.524109,39.842026 
	C530.134644,39.806213 530.089905,39.492996 530.079224,39.335178 
	C535.084961,38.496559 539.462097,39.735722 543.256714,43.769577 
	C541.216431,43.141529 538.954956,42.134064 536.619751,41.344608 
	C534.764465,40.717369 532.819031,40.356796 530.524109,39.842026 
z"/>
<path fill="#F4EEFF" opacity="1.000000" stroke="none" 
	d="
M584.048950,408.606323 
	C581.717834,406.783478 579.357727,404.608734 577.126892,402.093872 
	C579.510742,403.920624 581.765381,406.087524 584.048950,408.606323 
z"/>
<path fill="#F4EFFF" opacity="1.000000" stroke="none" 
	d="
M549.050293,52.604435 
	C547.197815,50.380219 545.309753,47.778042 543.683289,44.832932 
	C545.634827,47.068829 547.324707,49.647652 549.050293,52.604435 
z"/>
<path fill="#FEFDFF" opacity="1.000000" stroke="none" 
	d="
M56.582253,43.962486 
	C55.839809,45.633446 54.735729,47.338428 53.273140,49.010738 
	C54.016628,47.317547 55.118622,45.657028 56.582253,43.962486 
z"/>
<path fill="#F2EBFF" opacity="1.000000" stroke="none" 
	d="
M21.650520,402.894653 
	C20.876532,404.244293 19.749805,405.668304 18.271366,407.029938 
	C19.045696,405.634705 20.171740,404.301880 21.650520,402.894653 
z"/>
<path fill="#FEFDFF" opacity="1.000000" stroke="none" 
	d="
M61.611725,41.089756 
	C60.792324,41.939953 59.623680,42.716759 58.201096,43.208969 
	C59.052261,42.288372 60.157372,41.652367 61.611725,41.089756 
z"/>
<path fill="#FFFEFF" opacity="1.000000" stroke="none" 
	d="
M11.974078,441.417725 
	C12.736564,442.193970 13.545488,443.319580 14.148083,444.756104 
	C13.301340,443.967072 12.660929,442.867096 11.974078,441.417725 
z"/>
<path fill="#F2EBFF" opacity="1.000000" stroke="none" 
	d="
M16.607407,407.948730 
	C16.520060,408.663574 16.074955,409.407135 15.275431,410.055115 
	C15.363891,409.298859 15.806769,408.638123 16.607407,407.948730 
z"/>
<path fill="#F4EEFF" opacity="1.000000" stroke="none" 
	d="
M577.445068,401.495483 
	C576.722961,401.399628 576.166626,400.997070 575.838135,400.265656 
	C576.580994,400.354126 577.096008,400.771454 577.445068,401.495483 
z"/>
<path fill="#FFFEFF" opacity="1.000000" stroke="none" 
	d="
M17.042603,448.372711 
	C17.589186,448.203766 18.250025,448.355499 18.858704,448.893555 
	C18.256649,449.084381 17.706753,448.888885 17.042603,448.372711 
z"/>
<path fill="#FEFDFF" opacity="1.000000" stroke="none" 
	d="
M47.631531,374.043213 
	C47.821239,374.572571 47.706150,375.209229 47.213646,375.921326 
	C46.999737,375.381348 47.163239,374.765930 47.631531,374.043213 
z"/>
<path fill="#F2EBFF" opacity="1.000000" stroke="none" 
	d="
M7.644757,418.024780 
	C7.872812,418.505157 7.792848,419.081512 7.437324,419.807556 
	C7.220088,419.345032 7.278413,418.732910 7.644757,418.024780 
z"/>
<path fill="#FEFEFF" opacity="1.000000" stroke="none" 
	d="
M552.912354,375.670898 
	C552.374207,375.449554 551.911072,374.918121 551.765625,374.171387 
	C552.384644,374.424347 552.685913,374.892578 552.912354,375.670898 
z"/>
<path fill="#F2EBFF" opacity="1.000000" stroke="none" 
	d="
M8.617913,416.042847 
	C8.847733,416.593597 8.771619,417.242310 8.304600,417.940216 
	C8.046456,417.373199 8.179219,416.756989 8.617913,416.042847 
z"/>
<path fill="#F4EEFF" opacity="1.000000" stroke="none" 
	d="
M590.049133,415.679199 
	C589.585205,415.513306 589.087402,415.025360 588.829956,414.239014 
	C589.385254,414.412781 589.700317,414.884949 590.049133,415.679199 
z"/>
<path fill="#F4EEFF" opacity="1.000000" stroke="none" 
	d="
M575.964111,399.628479 
	C575.454895,399.833344 574.851196,399.737915 574.158813,399.286224 
	C574.669922,399.062683 575.269775,399.195435 575.964111,399.628479 
z"/>
<path fill="#F2EBFF" opacity="1.000000" stroke="none" 
	d="
M13.696097,410.981384 
	C13.844784,411.317566 13.727271,411.715149 13.265020,412.036926 
	C13.090155,411.655029 13.260026,411.348907 13.696097,410.981384 
z"/>
<path fill="#FEFDFF" opacity="1.000000" stroke="none" 
	d="
M57.694305,42.990112 
	C57.858452,43.346107 57.762859,43.770561 57.293545,44.077099 
	C57.091408,43.658981 57.262985,43.358772 57.694305,42.990112 
z"/>
<path fill="#FFFEFF" opacity="1.000000" stroke="none" 
	d="
M15.987759,447.298553 
	C16.332180,447.146271 16.745544,447.255859 17.061110,447.723328 
	C16.661108,447.907593 16.358904,447.734009 15.987759,447.298553 
z"/>
<path fill="#FFFEFF" opacity="1.000000" stroke="none" 
	d="
M14.987766,446.298706 
	C15.332826,446.146149 15.746753,446.255371 16.061897,446.722839 
	C15.660953,446.907562 15.358794,446.734039 14.987766,446.298706 
z"/>
<path fill="#FFFEFF" opacity="1.000000" stroke="none" 
	d="
M13.987734,445.298737 
	C14.332854,445.146149 14.746819,445.255371 15.061925,445.722839 
	C14.660903,445.907593 14.358741,445.734100 13.987734,445.298737 
z"/>
<path fill="#F2EBFF" opacity="1.000000" stroke="none" 
	d="
M17.704750,406.979431 
	C17.838676,407.288635 17.702093,407.659241 17.241779,408.001648 
	C17.090115,407.662567 17.262178,407.351715 17.704750,406.979431 
z"/>
<path fill="#FEFDFF" opacity="1.000000" stroke="none" 
	d="
M48.700966,372.987213 
	C48.856129,373.350281 48.750481,373.781250 48.282906,374.084412 
	C48.094040,373.656097 48.267094,373.355621 48.700966,372.987213 
z"/>
<path fill="#F4EEFF" opacity="1.000000" stroke="none" 
	d="
M585.017944,409.698608 
	C584.696594,409.842773 584.312195,409.719757 583.979736,409.257660 
	C584.339355,409.089539 584.647095,409.260468 585.017944,409.698608 
z"/>
<path fill="#F2EBFF" opacity="1.000000" stroke="none" 
	d="
M14.699464,409.980347 
	C14.843536,410.312347 14.720303,410.705627 14.258442,411.030823 
	C14.090596,410.655701 14.261376,410.348633 14.699464,409.980347 
z"/>
<path fill="#F4EEFF" opacity="1.000000" stroke="none" 
	d="
M586.017395,410.696716 
	C585.688416,410.844696 585.296509,410.726501 584.969727,410.263794 
	C585.341370,410.089691 585.647949,410.260132 586.017395,410.696716 
z"/>
<path fill="#F2EBFF" opacity="1.000000" stroke="none" 
	d="
M12.695345,411.981567 
	C12.846591,412.326782 12.732459,412.733093 12.269830,413.048523 
	C12.090877,412.652649 12.260422,412.347626 12.695345,411.981567 
z"/>
<path fill="#F2EBFF" opacity="1.000000" stroke="none" 
	d="
M9.688023,414.984253 
	C9.853903,415.362640 9.758273,415.801270 9.294001,416.093079 
	C9.092409,415.645660 9.259460,415.345062 9.688023,414.984253 
z"/>
<path fill="#F4EEFF" opacity="1.000000" stroke="none" 
	d="
M587.016479,411.693909 
	C586.679993,411.846893 586.280762,411.734924 585.959656,411.271484 
	C586.343079,411.089661 586.648376,411.259308 587.016479,411.693909 
z"/>
<path fill="#F2EBFF" opacity="1.000000" stroke="none" 
	d="
M10.690649,413.983154 
	C10.851587,414.352844 10.749872,414.782990 10.286249,415.081055 
	C10.092226,414.647186 10.260110,414.345398 10.690649,413.983154 
z"/>
<path fill="#F4EEFF" opacity="1.000000" stroke="none" 
	d="
M589.014526,413.689087 
	C588.662109,413.851685 588.247375,413.751526 587.938110,413.286438 
	C588.346558,413.089813 588.649353,413.258057 589.014526,413.689087 
z"/>
<path fill="#F2EBFF" opacity="1.000000" stroke="none" 
	d="
M11.693333,412.982178 
	C11.849207,413.340637 11.741055,413.759766 11.277912,414.065857 
	C11.091717,413.649506 11.260511,413.346191 11.693333,412.982178 
z"/>
<path fill="#F4EEFF" opacity="1.000000" stroke="none" 
	d="
M588.015930,412.692322 
	C587.669739,412.849182 587.261108,412.742126 586.946960,412.278015 
	C587.345459,412.090118 587.649475,412.259277 588.015930,412.692322 
z"/>
<path fill="#FFFEFF" opacity="1.000000" stroke="none" 
	d="
M64.005295,255.000000 
	C64.005295,191.337738 64.004196,128.175491 64.006432,65.013229 
	C64.006783,55.059811 66.047600,53.006779 75.953369,53.006649 
	C225.276291,53.004707 374.599213,53.004776 523.922119,53.006535 
	C533.517578,53.006649 535.992615,55.478905 535.992920,65.081902 
	C535.995850,164.408295 535.994690,263.734711 535.994690,363.061096 
	C535.994690,364.858002 535.994629,366.654938 535.994629,368.713623 
	C378.611969,368.713623 221.693314,368.713623 64.005287,368.713623 
	C64.005287,330.995026 64.005287,293.247498 64.005295,255.000000 
M329.500000,355.879456 
	C393.249817,355.879456 456.999664,355.879456 520.665039,355.879456 
	C520.665039,258.825928 520.665039,162.577774 520.665039,66.369919 
	C373.258118,66.369919 226.197662,66.369919 79.224838,66.369919 
	C79.224838,162.988220 79.224838,259.224915 79.224838,355.879303 
	C162.566147,355.879303 245.533081,355.879303 329.500000,355.879456 
z"/>
<path fill="#000000" opacity="1.000000" stroke="none" 
	d="
M541.018799,385.205261 
	C542.350708,386.653656 543.661072,388.122650 545.018188,389.546997 
	C551.792175,396.656097 558.578430,403.753510 565.690735,411.302399 
	C566.353088,412.246216 566.685059,412.742676 567.017029,413.239136 
	C566.970032,413.526794 567.070557,413.747162 567.598877,414.211548 
	C567.790344,414.698059 567.701477,414.873138 567.612671,415.048187 
	C567.612671,415.048187 567.396851,414.965668 566.814270,414.989502 
	C389.672729,415.009033 213.113739,415.007538 36.554783,414.963623 
	C34.707172,414.963165 32.859699,414.406342 31.012161,414.109253 
	C39.518311,405.068970 47.898960,395.904266 56.633709,387.090515 
	C58.437832,385.270081 61.536251,384.696533 64.087349,383.670685 
	C65.047653,383.284576 66.147614,383.245819 67.756638,383.435242 
	C70.322144,383.881195 72.314919,383.992493 74.307701,383.992584 
	C227.325806,384.000671 380.343903,383.994141 533.362000,384.050140 
	C535.914368,384.051056 538.466553,384.803497 541.018799,385.205261 
z"/>
<path fill="#FFFFFF" opacity="1.000000" stroke="none" 
	d="
M341.086456,429.278931 
	C359.742065,429.234558 378.397675,429.157379 397.053284,429.151886 
	C454.191895,429.135071 511.330505,429.145782 568.469116,429.145782 
	C570.456970,429.145782 572.444763,429.145752 574.446533,429.145752 
	C574.096130,435.504791 572.699524,437.121613 567.573059,437.121704 
	C399.322632,437.124207 231.072205,437.116882 62.565620,436.652405 
	C64.134346,436.129150 65.959206,436.008209 67.784081,436.008026 
	C157.008148,435.998779 246.232208,435.999939 335.456268,435.999939 
	C337.253113,435.999939 339.049957,435.999939 340.959961,435.999939 
	C340.959961,433.741821 340.959961,431.924652 341.013794,429.903748 
	C341.067627,429.700012 341.086456,429.278931 341.086456,429.278931 
z"/>
<path fill="#000000" opacity="1.000000" stroke="none" 
	d="
M340.959961,430.107513 
	C340.959961,431.924652 340.959961,433.741821 340.959961,435.999939 
	C339.049957,435.999939 337.253113,435.999939 335.456268,435.999939 
	C246.232208,435.999939 157.008148,435.998779 67.784081,436.008026 
	C65.959206,436.008209 64.134346,436.129150 62.093697,436.581116 
	C51.454445,436.966858 41.028477,437.081055 30.609844,436.855743 
	C28.757799,436.815674 26.936268,435.364655 25.041233,433.767822 
	C24.454210,428.864075 27.501064,430.024323 29.521887,430.023224 
	C88.677734,429.990662 147.833603,429.985382 206.989471,430.004181 
	C251.646301,430.018341 296.303131,430.071625 340.959961,430.107513 
z"/>
<path fill="#C6A8FF" opacity="1.000000" stroke="none" 
	d="
M30.719280,414.223328 
	C32.859699,414.406342 34.707172,414.963165 36.554783,414.963623 
	C213.113739,415.007538 389.672729,415.009033 566.723999,415.061523 
	C565.297668,415.403839 563.379211,415.955017 561.460571,415.955475 
	C385.714478,415.994995 209.968369,415.997406 34.222347,415.880219 
	C33.111572,415.879456 30.324923,418.023560 30.719280,414.223328 
z"/>
<path fill="#FFFFFF" opacity="1.000000" stroke="none" 
	d="
M540.966125,384.776093 
	C538.466553,384.803497 535.914368,384.051056 533.362000,384.050140 
	C380.343903,383.994141 227.325806,384.000671 74.307701,383.992584 
	C72.314919,383.992493 70.322144,383.881195 68.115799,383.436157 
	C69.896828,382.991211 71.891418,382.880096 73.886002,382.880005 
	C227.242508,382.872284 380.598999,382.866791 533.955505,382.934814 
	C536.275024,382.935822 538.594116,383.855804 540.966125,384.776093 
z"/>
<path fill="#E2D3FF" opacity="1.000000" stroke="none" 
	d="
M341.013794,429.903748 
	C296.303131,430.071625 251.646301,430.018341 206.989471,430.004181 
	C147.833603,429.985382 88.677734,429.990662 29.521887,430.023224 
	C27.501064,430.024323 24.454210,428.864075 24.902142,433.392548 
	C24.120527,432.568695 23.418594,431.322815 22.449926,429.603516 
	C23.990072,429.330353 24.896090,429.028900 25.802103,429.028931 
	C130.586060,429.030212 235.370010,429.053955 340.620209,429.177704 
	C341.086456,429.278931 341.067627,429.700012 341.013794,429.903748 
z"/>
<path fill="#C6A8FF" opacity="1.000000" stroke="none" 
	d="
M567.018677,412.914612 
	C566.685059,412.742676 566.353088,412.246216 566.005310,411.429565 
	C566.333130,411.602966 566.676697,412.096558 567.018677,412.914612 
z"/>
<path fill="#C6A8FF" opacity="1.000000" stroke="none" 
	d="
M567.924805,415.025238 
	C567.701477,414.873138 567.790344,414.698059 567.788086,414.241852 
	C567.877014,414.307922 568.057007,414.655121 567.924805,415.025238 
z"/>
<path fill="#8F57FF" opacity="1.000000" stroke="none" 
	d="
M329.000000,355.879395 
	C245.533081,355.879303 162.566147,355.879303 79.224838,355.879303 
	C79.224838,259.224915 79.224838,162.988220 79.224838,66.369919 
	C226.197662,66.369919 373.258118,66.369919 520.665039,66.369919 
	C520.665039,162.577774 520.665039,258.825928 520.665039,355.879456 
	C456.999664,355.879456 393.249817,355.879456 329.000000,355.879395 
M507.314575,119.500046 
	C507.314575,106.421196 507.314575,93.342346 507.314575,80.168961 
	C368.759369,80.168961 231.026825,80.168961 93.001572,80.168961 
	C93.001572,167.492355 93.001572,254.526337 93.001572,341.749512 
	C231.177231,341.749512 369.036255,341.749512 507.314575,341.749512 
	C507.314575,267.752960 507.314575,194.126511 507.314575,119.500046 
z"/>
<path fill="#FEFEFE" opacity="1.000000" stroke="none" 
	d="
M507.314575,120.000053 
	C507.314575,194.126511 507.314575,267.752960 507.314575,341.749512 
	C369.036255,341.749512 231.177231,341.749512 93.001572,341.749512 
	C93.001572,254.526337 93.001572,167.492355 93.001572,80.168961 
	C231.026825,80.168961 368.759369,80.168961 507.314575,80.168961 
	C507.314575,93.342346 507.314575,106.421196 507.314575,120.000053 
M319.999268,182.793930 
	C329.762939,185.869690 339.682373,187.699600 349.990356,186.852753 
	C364.721375,185.642502 373.694244,178.389969 375.986938,163.859039 
	C377.237457,155.933105 376.365967,147.658966 376.278717,139.543732 
	C376.253448,137.192886 375.630005,134.848450 375.231201,132.167938 
	C377.224915,132.555176 378.355652,132.863922 379.506073,132.984192 
	C388.920654,133.968536 398.328186,135.081818 407.767761,135.698380 
	C409.162445,135.789474 410.713928,133.480515 412.192871,132.281967 
	C410.661804,131.415176 409.192993,129.960159 407.588135,129.790268 
	C402.468658,129.248306 397.261841,129.491562 392.154602,128.880829 
	C371.531281,126.414650 370.280304,125.035095 368.919128,104.029556 
	C368.585724,98.883850 368.795746,93.698982 368.352936,88.566879 
	C368.229462,87.135689 366.664520,85.828865 365.760834,84.464966 
	C364.682800,85.675713 363.192963,86.725807 362.640625,88.141640 
	C362.069092,89.606697 362.246979,91.439026 362.373993,93.089394 
	C363.134735,102.976074 363.975372,112.856613 364.819916,123.112129 
	C359.027069,121.626358 352.876740,119.742928 346.600220,118.493858 
	C323.607574,113.918152 308.336731,125.520515 306.756592,148.899277 
	C306.257080,156.289734 306.678558,163.742447 306.678558,170.988510 
	C303.769165,170.073654 299.869629,168.617950 295.855988,167.622360 
	C268.597809,160.860886 248.344040,180.095230 253.902298,207.407379 
	C254.952682,212.568802 256.101471,217.710205 257.382233,223.688751 
	C254.334991,222.500885 252.126114,221.380234 249.783936,220.778152 
	C244.009232,219.293732 238.225891,217.233627 232.352432,216.854462 
	C213.025208,215.606766 199.818344,228.205841 198.875565,248.399216 
	C198.521347,255.986542 198.818146,263.604248 198.818146,271.181061 
	C195.424927,270.123688 191.204437,268.649536 186.897766,267.497650 
	C176.022461,264.588898 165.697571,265.815643 156.421555,272.462494 
	C155.223404,273.321014 155.074600,275.643982 154.439713,277.288574 
	C156.169495,277.417328 158.091461,278.091980 159.590179,277.564362 
	C163.005539,276.361908 166.075424,274.080231 169.530731,273.107178 
	C181.001617,269.876770 191.033997,275.138977 201.206116,279.165100 
	C201.936386,279.454163 202.606155,280.664551 202.753220,281.539185 
	C204.154480,289.872345 206.360886,298.218567 206.424194,306.575500 
	C206.465561,312.035553 203.620972,317.627686 201.509857,322.938324 
	C200.693085,324.993011 197.854294,326.907349 200.577133,328.683655 
	C201.676071,329.400513 205.217560,327.953827 206.523499,326.489410 
	C211.273224,321.163361 213.036270,314.422516 212.837845,307.497131 
	C212.602463,299.282104 211.496445,291.091980 210.892563,284.295746 
	C220.720642,285.188751 231.240906,287.188293 241.687607,286.858429 
	C258.970215,286.312744 268.409210,275.889954 268.917175,258.640747 
	C269.039215,254.497284 268.655914,250.319595 268.236389,246.184875 
	C267.807831,241.961227 267.048889,237.771088 266.367188,233.104813 
	C269.272522,233.626938 271.521149,234.060501 273.779999,234.431870 
	C283.391968,236.012177 292.996918,236.565903 302.530243,233.939117 
	C315.932007,230.246475 323.625610,220.730118 322.835297,206.851685 
	C322.388702,199.008972 319.836945,191.286163 318.752136,183.159332 
	C318.912689,183.026215 319.073273,182.893097 319.999268,182.793930 
z"/>
<path fill="#0E0E0E" opacity="1.000000" stroke="none" 
	d="
M318.233459,183.509338 
	C319.836945,191.286163 322.388702,199.008972 322.835297,206.851685 
	C323.625610,220.730118 315.932007,230.246475 302.530243,233.939117 
	C292.996918,236.565903 283.391968,236.012177 273.779999,234.431870 
	C271.521149,234.060501 269.272522,233.626938 266.367188,233.104813 
	C267.048889,237.771088 267.807831,241.961227 268.236389,246.184875 
	C268.655914,250.319595 269.039215,254.497284 268.917175,258.640747 
	C268.409210,275.889954 258.970215,286.312744 241.687607,286.858429 
	C231.240906,287.188293 220.720642,285.188751 210.892563,284.295746 
	C211.496445,291.091980 212.602463,299.282104 212.837845,307.497131 
	C213.036270,314.422516 211.273224,321.163361 206.523499,326.489410 
	C205.217560,327.953827 201.676071,329.400513 200.577133,328.683655 
	C197.854294,326.907349 200.693085,324.993011 201.509857,322.938324 
	C203.620972,317.627686 206.465561,312.035553 206.424194,306.575500 
	C206.360886,298.218567 204.154480,289.872345 202.753220,281.539185 
	C202.606155,280.664551 201.936386,279.454163 201.206116,279.165100 
	C191.033997,275.138977 181.001617,269.876770 169.530731,273.107178 
	C166.075424,274.080231 163.005539,276.361908 159.590179,277.564362 
	C158.091461,278.091980 156.169495,277.417328 154.439728,277.288574 
	C155.074600,275.643982 155.223404,273.321014 156.421555,272.462494 
	C165.697571,265.815643 176.022461,264.588898 186.897766,267.497650 
	C191.204437,268.649536 195.424927,270.123688 198.818146,271.181061 
	C198.818146,263.604248 198.521347,255.986542 198.875565,248.399216 
	C199.818344,228.205841 213.025208,215.606766 232.352432,216.854462 
	C238.225891,217.233627 244.009232,219.293732 249.783936,220.778152 
	C252.126114,221.380234 254.334991,222.500885 257.382233,223.688751 
	C256.101471,217.710205 254.952682,212.568802 253.902298,207.407379 
	C248.344040,180.095230 268.597809,160.860886 295.855988,167.622360 
	C299.869629,168.617950 303.769165,170.073654 306.678558,170.988510 
	C306.678558,163.742447 306.257080,156.289734 306.756592,148.899277 
	C308.336731,125.520515 323.607574,113.918152 346.600220,118.493858 
	C352.876740,119.742928 359.027069,121.626358 364.819916,123.112129 
	C363.975372,112.856613 363.134735,102.976074 362.373993,93.089394 
	C362.246979,91.439026 362.069092,89.606697 362.640625,88.141640 
	C363.192963,86.725807 364.682800,85.675713 365.760834,84.464973 
	C366.664520,85.828865 368.229462,87.135689 368.352936,88.566879 
	C368.795746,93.698982 368.585724,98.883850 368.919128,104.029556 
	C370.280304,125.035095 371.531281,126.414650 392.154602,128.880829 
	C397.261841,129.491562 402.468658,129.248306 407.588135,129.790268 
	C409.192993,129.960159 410.661804,131.415176 412.192871,132.281952 
	C410.713928,133.480515 409.162445,135.789474 407.767761,135.698380 
	C398.328186,135.081818 388.920654,133.968536 379.506073,132.984192 
	C378.355652,132.863922 377.224915,132.555176 375.231201,132.167938 
	C375.630005,134.848450 376.253448,137.192886 376.278717,139.543732 
	C376.365967,147.658966 377.237457,155.933105 375.986938,163.859039 
	C373.694244,178.389969 364.721375,185.642502 349.990356,186.852753 
	C339.682373,187.699600 329.762939,185.869690 319.446655,182.560547 
	C318.673828,182.721222 318.453644,183.115280 318.233459,183.509338 
M236.376938,254.125885 
	C242.888916,261.167450 249.400909,268.209045 256.775543,276.183441 
	C258.758545,272.028687 260.759491,268.806946 261.779846,265.299896 
	C262.310974,263.474274 261.813812,260.518829 260.584473,259.142487 
	C250.287384,247.613983 239.736664,236.310989 229.177887,225.019012 
	C228.269394,224.047455 226.495667,222.826019 225.562164,223.118698 
	C221.350739,224.438995 217.297226,226.263000 212.442871,228.202774 
	C221.027420,237.498291 228.462860,245.549530 236.376938,254.125885 
M344.055817,129.401672 
	C337.760986,122.583305 330.331635,122.087662 323.470123,128.261688 
	C337.332397,143.270065 351.191315,158.274811 365.490417,173.756104 
	C366.739502,171.482986 367.799530,169.843857 368.579254,168.080780 
	C370.946747,162.727585 371.238403,158.193344 366.226410,153.430466 
	C358.517242,146.104431 351.724854,137.813705 344.055817,129.401672 
M314.762238,210.134644 
	C305.054840,199.639694 295.336945,189.154480 285.644196,178.646027 
	C280.159821,172.700134 279.892639,172.598251 272.552246,175.788361 
	C270.912476,176.501007 269.374817,177.448578 267.170227,178.616364 
	C281.416931,194.028320 295.313538,209.061539 309.470459,224.376373 
	C313.040222,219.952072 317.779846,216.895599 314.762238,210.134644 
M316.494690,134.922195 
	C312.114044,144.577042 312.087189,144.602203 319.188721,152.183685 
	C326.581573,160.076187 334.026428,167.919983 341.461700,175.772629 
	C347.146606,181.776688 352.567261,182.268387 360.422638,177.256943 
	C346.962372,162.686157 333.570862,148.153702 320.058289,133.734711 
	C319.647888,133.296799 317.974457,134.042496 316.494690,134.922195 
M289.484070,229.215942 
	C293.967438,228.820343 298.450836,228.424744 304.414703,227.898514 
	C289.889771,212.176804 276.578369,197.768661 263.142456,183.225708 
	C257.441498,191.739838 257.655640,194.831970 263.883881,201.575912 
	C272.237793,210.621490 280.581390,219.676620 289.484070,229.215942 
M214.348251,256.156830 
	C220.322342,262.644470 226.318756,269.111755 232.264359,275.625397 
	C238.346146,282.288239 241.136414,282.803040 250.554749,278.452942 
	C236.829071,263.580536 223.240540,248.856766 209.581512,234.056595 
	C203.887619,242.631973 204.047424,245.139969 210.458847,251.985214 
	C211.596420,253.199753 212.729630,254.418381 214.348251,256.156830 
M312.402191,186.064667 
	C311.434540,183.653824 311.105255,179.885574 309.384399,179.076294 
	C303.222076,176.178268 296.588409,174.282516 290.132996,172.007721 
	C289.851318,172.550400 289.569641,173.093063 289.287933,173.635727 
	C298.057129,183.126038 306.826324,192.616333 315.595520,202.106628 
	C316.006653,201.890198 316.417816,201.673752 316.828949,201.457321 
	C315.446442,196.573227 314.063934,191.689133 312.402191,186.064667 
M241.281815,229.197479 
	C247.841324,236.250229 254.400833,243.302963 260.960358,250.355713 
	C261.514587,250.103180 262.068848,249.850647 262.623077,249.598114 
	C261.629700,243.837997 260.675446,238.070480 259.591675,232.327408 
	C259.461304,231.636627 258.752136,230.757126 258.102936,230.508072 
	C251.230301,227.871460 244.315430,225.344971 237.412201,222.788116 
	C237.163254,223.193283 236.914322,223.598434 236.665375,224.003586 
	C238.046997,225.556656 239.428635,227.109741 241.281815,229.197479 
M316.888977,158.538849 
	C315.887299,157.308685 314.885620,156.078522 313.883911,154.848358 
	C313.378510,155.107925 312.873108,155.367493 312.367706,155.627060 
	C313.268311,161.438858 314.130554,167.257172 315.119202,173.053955 
	C315.239471,173.759003 315.918671,174.735550 316.543701,174.931000 
	C322.910797,176.921951 329.320374,178.776947 335.718079,180.669998 
	C335.947296,180.200607 336.176544,179.731232 336.405792,179.261841 
	C330.066132,172.527893 323.726440,165.793961 316.888977,158.538849 
M226.230927,280.688416 
	C226.362228,279.928589 226.885208,278.819092 226.565964,278.461487 
	C221.919891,273.257141 217.169159,268.145966 212.425720,263.028931 
	C210.146561,260.570251 207.830338,258.145905 205.025345,255.169571 
	C203.969421,272.427124 206.751160,276.249756 222.086395,279.819763 
	C223.218613,280.083344 224.358627,280.313507 226.230927,280.688416 
M350.217926,126.036774 
	C350.053802,126.058250 349.878204,126.051140 349.729523,126.110962 
	C349.624908,126.153076 349.476135,126.359756 349.483856,126.368210 
	C356.396606,133.949921 363.320923,141.521088 370.245148,149.092346 
	C370.628113,148.920135 371.011078,148.747940 371.394073,148.575729 
	C370.482666,143.112793 369.682037,137.626816 368.555237,132.208679 
	C368.358154,131.261002 366.909149,130.187103 365.834045,129.874817 
	C360.921173,128.447769 355.935486,127.271286 350.217926,126.036774 
M265.859741,212.623642 
	C264.194977,211.028290 262.530212,209.432938 259.837982,206.852936 
	C261.433167,213.401932 262.587280,218.335342 263.866791,223.236008 
	C264.137909,224.274460 264.686279,225.862167 265.414337,226.058807 
	C270.149048,227.337708 274.968658,228.302414 279.760468,229.369965 
	C279.887024,228.947067 280.013550,228.524155 280.140106,228.101257 
	C275.538513,223.119995 270.936920,218.138733 265.859741,212.623642 
z"/>
<path fill="#F7F7F7" opacity="1.000000" stroke="none" 
	d="
M236.137619,253.863327 
	C228.462860,245.549530 221.027420,237.498291 212.442871,228.202774 
	C217.297226,226.263000 221.350739,224.438995 225.562164,223.118698 
	C226.495667,222.826019 228.269394,224.047455 229.177887,225.019012 
	C239.736664,236.310989 250.287384,247.613983 260.584473,259.142487 
	C261.813812,260.518829 262.310974,263.474274 261.779846,265.299896 
	C260.759491,268.806946 258.758545,272.028687 256.775543,276.183441 
	C249.400909,268.209045 242.888916,261.167450 236.137619,253.863327 
z"/>
<path fill="#F7F7F7" opacity="1.000000" stroke="none" 
	d="
M344.299652,129.666977 
	C351.724854,137.813705 358.517242,146.104431 366.226410,153.430466 
	C371.238403,158.193344 370.946747,162.727585 368.579254,168.080780 
	C367.799530,169.843857 366.739502,171.482986 365.490417,173.756104 
	C351.191315,158.274811 337.332397,143.270065 323.470123,128.261688 
	C330.331635,122.087662 337.760986,122.583305 344.299652,129.666977 
z"/>
<path fill="#F7F7F7" opacity="1.000000" stroke="none" 
	d="
M315.012817,210.428284 
	C317.779846,216.895599 313.040222,219.952072 309.470459,224.376373 
	C295.313538,209.061539 281.416931,194.028320 267.170227,178.616364 
	C269.374817,177.448578 270.912476,176.501007 272.552246,175.788361 
	C279.892639,172.598251 280.159821,172.700134 285.644196,178.646027 
	C295.336945,189.154480 305.054840,199.639694 315.012817,210.428284 
z"/>
<path fill="#F6F6F6" opacity="1.000000" stroke="none" 
	d="
M316.692291,134.579285 
	C317.974457,134.042496 319.647888,133.296799 320.058289,133.734711 
	C333.570862,148.153702 346.962372,162.686157 360.422638,177.256943 
	C352.567261,182.268387 347.146606,181.776688 341.461700,175.772629 
	C334.026428,167.919983 326.581573,160.076187 319.188721,152.183685 
	C312.087189,144.602203 312.114044,144.577042 316.692291,134.579285 
z"/>
<path fill="#F6F6F6" opacity="1.000000" stroke="none" 
	d="
M289.206726,228.971802 
	C280.581390,219.676620 272.237793,210.621490 263.883881,201.575912 
	C257.655640,194.831970 257.441498,191.739838 263.142456,183.225708 
	C276.578369,197.768661 289.889771,212.176804 304.414703,227.898514 
	C298.450836,228.424744 293.967438,228.820343 289.206726,228.971802 
z"/>
<path fill="#F5F5F5" opacity="1.000000" stroke="none" 
	d="
M214.106567,255.895966 
	C212.729630,254.418381 211.596420,253.199753 210.458847,251.985214 
	C204.047424,245.139969 203.887619,242.631973 209.581512,234.056595 
	C223.240540,248.856766 236.829071,263.580536 250.554749,278.452942 
	C241.136414,282.803040 238.346146,282.288239 232.264359,275.625397 
	C226.318756,269.111755 220.322342,262.644470 214.106567,255.895966 
z"/>
<path fill="#EFEFEF" opacity="1.000000" stroke="none" 
	d="
M312.541809,186.434860 
	C314.063934,191.689133 315.446442,196.573227 316.828949,201.457321 
	C316.417816,201.673752 316.006653,201.890198 315.595520,202.106628 
	C306.826324,192.616333 298.057129,183.126038 289.287933,173.635727 
	C289.569641,173.093063 289.851318,172.550400 290.132996,172.007721 
	C296.588409,174.282516 303.222076,176.178268 309.384399,179.076294 
	C311.105255,179.885574 311.434540,183.653824 312.541809,186.434860 
z"/>
<path fill="#F0F0F0" opacity="1.000000" stroke="none" 
	d="
M241.046036,228.930145 
	C239.428635,227.109741 238.046997,225.556656 236.665375,224.003586 
	C236.914322,223.598434 237.163254,223.193283 237.412201,222.788116 
	C244.315430,225.344971 251.230301,227.871460 258.102936,230.508072 
	C258.752136,230.757126 259.461304,231.636627 259.591675,232.327408 
	C260.675446,238.070480 261.629700,243.837997 262.623077,249.598114 
	C262.068848,249.850647 261.514587,250.103180 260.960358,250.355713 
	C254.400833,243.302963 247.841324,236.250229 241.046036,228.930145 
z"/>
<path fill="#EFEFEF" opacity="1.000000" stroke="none" 
	d="
M317.137878,158.799438 
	C323.726440,165.793961 330.066132,172.527893 336.405792,179.261841 
	C336.176544,179.731232 335.947296,180.200607 335.718079,180.669998 
	C329.320374,178.776947 322.910797,176.921951 316.543701,174.931000 
	C315.918671,174.735550 315.239471,173.759003 315.119202,173.053955 
	C314.130554,167.257172 313.268311,161.438858 312.367706,155.627060 
	C312.873108,155.367493 313.378510,155.107925 313.883911,154.848358 
	C314.885620,156.078522 315.887299,157.308685 317.137878,158.799438 
z"/>
<path fill="#EFEFEF" opacity="1.000000" stroke="none" 
	d="
M225.862976,280.623779 
	C224.358627,280.313507 223.218613,280.083344 222.086395,279.819763 
	C206.751160,276.249756 203.969421,272.427124 205.025345,255.169571 
	C207.830338,258.145905 210.146561,260.570251 212.425720,263.028931 
	C217.169159,268.145966 221.919891,273.257141 226.565964,278.461487 
	C226.885208,278.819092 226.362228,279.928589 225.862976,280.623779 
z"/>
<path fill="#EEEEEE" opacity="1.000000" stroke="none" 
	d="
M350.596954,126.020782 
	C355.935486,127.271286 360.921173,128.447769 365.834045,129.874817 
	C366.909149,130.187103 368.358154,131.261002 368.555237,132.208679 
	C369.682037,137.626816 370.482666,143.112793 371.394073,148.575729 
	C371.011078,148.747940 370.628113,148.920135 370.245148,149.092346 
	C363.320923,141.521088 356.396606,133.949921 349.483856,126.368210 
	C349.476135,126.359756 349.624908,126.153076 349.729523,126.110962 
	C349.878204,126.051140 350.053802,126.058250 350.596954,126.020782 
z"/>
<path fill="#EDEDED" opacity="1.000000" stroke="none" 
	d="
M266.097534,212.890564 
	C270.936920,218.138733 275.538513,223.119995 280.140106,228.101257 
	C280.013550,228.524155 279.887024,228.947067 279.760468,229.369965 
	C274.968658,228.302414 270.149048,227.337708 265.414337,226.058807 
	C264.686279,225.862167 264.137909,224.274460 263.866791,223.236008 
	C262.587280,218.335342 261.433167,213.401932 259.837982,206.852936 
	C262.530212,209.432938 264.194977,211.028290 266.097534,212.890564 
z"/>
<path fill="#FEFEFE" opacity="1.000000" stroke="none" 
	d="
M318.492798,183.334351 
	C318.453644,183.115280 318.673828,182.721222 319.063934,182.543564 
	C319.073273,182.893097 318.912689,183.026215 318.492798,183.334351 
z"/>
</svg>